<mxfile host="app.diagrams.net" modified="2021-11-23T17:51:38.301Z" agent="5.0 (Windows NT 10.0; WOW64) AppleWebKit/537.36 (KHTML, like Gecko) Chrome/96.0.4664.45 Safari/537.36" etag="iNcQyg9JXEl9mnDQF-GP" version="15.8.2" type="github">
  <diagram id="kgpKYQtTHZ0yAKxKKP6v" name="Page-1">
    <mxGraphModel dx="868" dy="393" grid="1" gridSize="10" guides="1" tooltips="1" connect="1" arrows="1" fold="1" page="1" pageScale="1" pageWidth="850" pageHeight="1100" math="0" shadow="0">
      <root>
        <mxCell id="0" />
        <mxCell id="1" parent="0" />
        <mxCell id="DxMj-Uew-eTLdMCIQgF5-1" value="Admin" style="swimlane;" parent="1" vertex="1">
          <mxGeometry x="320" y="110" width="200" height="450" as="geometry">
            <mxRectangle x="320" y="110" width="130" height="23" as="alternateBounds" />
          </mxGeometry>
        </mxCell>
        <mxCell id="DxMj-Uew-eTLdMCIQgF5-3" value="" style="ellipse;html=1;shape=startState;fillColor=#000000;strokeColor=#000000;" parent="DxMj-Uew-eTLdMCIQgF5-1" vertex="1">
          <mxGeometry x="90" y="30" width="30" height="30" as="geometry" />
        </mxCell>
        <mxCell id="DxMj-Uew-eTLdMCIQgF5-4" value="" style="edgeStyle=orthogonalEdgeStyle;html=1;verticalAlign=bottom;endArrow=open;endSize=8;strokeColor=#000000;rounded=0;" parent="DxMj-Uew-eTLdMCIQgF5-1" source="DxMj-Uew-eTLdMCIQgF5-3" edge="1">
          <mxGeometry relative="1" as="geometry">
            <mxPoint x="105" y="100" as="targetPoint" />
          </mxGeometry>
        </mxCell>
        <mxCell id="DxMj-Uew-eTLdMCIQgF5-5" value="Masuk Aplikasi" style="html=1;" parent="DxMj-Uew-eTLdMCIQgF5-1" vertex="1">
          <mxGeometry x="50" y="100" width="110" height="50" as="geometry" />
        </mxCell>
        <mxCell id="DxMj-Uew-eTLdMCIQgF5-7" value="" style="endArrow=open;endFill=1;endSize=12;html=1;rounded=0;strokeColor=#000000;exitX=0.5;exitY=1;exitDx=0;exitDy=0;" parent="DxMj-Uew-eTLdMCIQgF5-1" source="DxMj-Uew-eTLdMCIQgF5-5" edge="1">
          <mxGeometry width="160" relative="1" as="geometry">
            <mxPoint x="50" y="210" as="sourcePoint" />
            <mxPoint x="105" y="190" as="targetPoint" />
          </mxGeometry>
        </mxCell>
        <mxCell id="DxMj-Uew-eTLdMCIQgF5-8" value="&lt;font style=&quot;font-size: 11px&quot;&gt;Masukkan Username&lt;br&gt;&lt;/font&gt;&lt;font style=&quot;font-size: 11px&quot;&gt;dan pasword&lt;/font&gt;" style="html=1;" parent="DxMj-Uew-eTLdMCIQgF5-1" vertex="1">
          <mxGeometry x="50" y="190" width="110" height="50" as="geometry" />
        </mxCell>
        <mxCell id="DxMj-Uew-eTLdMCIQgF5-2" value="Sistem" style="swimlane;" parent="1" vertex="1">
          <mxGeometry x="520" y="110" width="200" height="450" as="geometry" />
        </mxCell>
        <mxCell id="DxMj-Uew-eTLdMCIQgF5-9" value="Pilih login" style="html=1;" parent="DxMj-Uew-eTLdMCIQgF5-2" vertex="1">
          <mxGeometry x="50" y="30" width="110" height="50" as="geometry" />
        </mxCell>
        <mxCell id="DxMj-Uew-eTLdMCIQgF5-12" value="" style="endArrow=open;endFill=1;endSize=12;html=1;rounded=0;strokeColor=#000000;entryX=0.5;entryY=0;entryDx=0;entryDy=0;exitX=0.5;exitY=1;exitDx=0;exitDy=0;" parent="DxMj-Uew-eTLdMCIQgF5-2" source="DxMj-Uew-eTLdMCIQgF5-9" target="DxMj-Uew-eTLdMCIQgF5-13" edge="1">
          <mxGeometry width="160" relative="1" as="geometry">
            <mxPoint x="110" y="160" as="sourcePoint" />
            <mxPoint x="110" y="170" as="targetPoint" />
          </mxGeometry>
        </mxCell>
        <mxCell id="DxMj-Uew-eTLdMCIQgF5-13" value="Tampil Form Login" style="html=1;" parent="DxMj-Uew-eTLdMCIQgF5-2" vertex="1">
          <mxGeometry x="50" y="110" width="110" height="50" as="geometry" />
        </mxCell>
        <mxCell id="DxMj-Uew-eTLdMCIQgF5-17" value="" style="rhombus;whiteSpace=wrap;html=1;fontSize=11;strokeColor=#000000;" parent="DxMj-Uew-eTLdMCIQgF5-2" vertex="1">
          <mxGeometry x="60" y="195" width="90" height="40" as="geometry" />
        </mxCell>
        <mxCell id="DxMj-Uew-eTLdMCIQgF5-18" value="&lt;font style=&quot;font-size: 12px&quot;&gt;validasi&lt;/font&gt;" style="text;html=1;strokeColor=none;fillColor=none;align=center;verticalAlign=middle;whiteSpace=wrap;rounded=0;fontSize=11;strokeWidth=10;" parent="DxMj-Uew-eTLdMCIQgF5-2" vertex="1">
          <mxGeometry x="82.5" y="200" width="45" height="30" as="geometry" />
        </mxCell>
        <mxCell id="DxMj-Uew-eTLdMCIQgF5-20" style="edgeStyle=orthogonalEdgeStyle;rounded=0;orthogonalLoop=1;jettySize=auto;html=1;exitX=0.5;exitY=1;exitDx=0;exitDy=0;fontSize=12;strokeColor=#000000;" parent="DxMj-Uew-eTLdMCIQgF5-2" source="DxMj-Uew-eTLdMCIQgF5-18" target="DxMj-Uew-eTLdMCIQgF5-18" edge="1">
          <mxGeometry relative="1" as="geometry" />
        </mxCell>
        <mxCell id="DxMj-Uew-eTLdMCIQgF5-22" value="gagal" style="text;align=center;fontStyle=0;verticalAlign=middle;spacingLeft=3;spacingRight=3;strokeColor=none;rotatable=0;points=[[0,0.5],[1,0.5]];portConstraint=eastwest;fontSize=12;" parent="DxMj-Uew-eTLdMCIQgF5-2" vertex="1">
          <mxGeometry x="150" y="169" width="37.5" height="26" as="geometry" />
        </mxCell>
        <mxCell id="DxMj-Uew-eTLdMCIQgF5-24" value="Tampil Menu Utama" style="html=1;" parent="DxMj-Uew-eTLdMCIQgF5-2" vertex="1">
          <mxGeometry x="50" y="280" width="110" height="50" as="geometry" />
        </mxCell>
        <mxCell id="DxMj-Uew-eTLdMCIQgF5-25" value="" style="endArrow=open;endFill=1;endSize=12;html=1;rounded=0;fontSize=12;strokeColor=#000000;" parent="DxMj-Uew-eTLdMCIQgF5-2" edge="1">
          <mxGeometry width="160" relative="1" as="geometry">
            <mxPoint x="105" y="330" as="sourcePoint" />
            <mxPoint x="105" y="380" as="targetPoint" />
            <Array as="points">
              <mxPoint x="104.5" y="380" />
            </Array>
          </mxGeometry>
        </mxCell>
        <mxCell id="DxMj-Uew-eTLdMCIQgF5-27" value="" style="ellipse;html=1;shape=endState;fillColor=#000000;strokeColor=#000000;fontSize=12;" parent="DxMj-Uew-eTLdMCIQgF5-2" vertex="1">
          <mxGeometry x="90" y="390" width="30" height="30" as="geometry" />
        </mxCell>
        <mxCell id="DxMj-Uew-eTLdMCIQgF5-21" value="" style="endArrow=open;endFill=1;endSize=12;html=1;rounded=0;fontSize=12;strokeColor=#000000;entryX=1;entryY=0.5;entryDx=0;entryDy=0;exitX=1;exitY=0.5;exitDx=0;exitDy=0;" parent="DxMj-Uew-eTLdMCIQgF5-2" source="DxMj-Uew-eTLdMCIQgF5-17" target="DxMj-Uew-eTLdMCIQgF5-13" edge="1">
          <mxGeometry width="160" relative="1" as="geometry">
            <mxPoint x="150" y="310" as="sourcePoint" />
            <mxPoint x="170" y="220" as="targetPoint" />
            <Array as="points">
              <mxPoint x="190" y="215" />
              <mxPoint x="190" y="135" />
            </Array>
          </mxGeometry>
        </mxCell>
        <mxCell id="DxMj-Uew-eTLdMCIQgF5-28" value="" style="endArrow=open;endFill=1;endSize=12;html=1;rounded=0;fontSize=12;strokeColor=#000000;" parent="DxMj-Uew-eTLdMCIQgF5-2" edge="1">
          <mxGeometry width="160" relative="1" as="geometry">
            <mxPoint x="105" y="240" as="sourcePoint" />
            <mxPoint x="105" y="280" as="targetPoint" />
          </mxGeometry>
        </mxCell>
        <mxCell id="DxMj-Uew-eTLdMCIQgF5-29" value="Sukses" style="text;align=center;fontStyle=0;verticalAlign=middle;spacingLeft=3;spacingRight=3;strokeColor=none;rotatable=0;points=[[0,0.5],[1,0.5]];portConstraint=eastwest;fontSize=12;" parent="DxMj-Uew-eTLdMCIQgF5-2" vertex="1">
          <mxGeometry x="60" y="240" width="37.5" height="26" as="geometry" />
        </mxCell>
        <mxCell id="DxMj-Uew-eTLdMCIQgF5-15" value="" style="endArrow=open;endFill=1;endSize=12;html=1;rounded=0;strokeColor=#000000;exitX=0;exitY=0.5;exitDx=0;exitDy=0;entryX=1;entryY=0.5;entryDx=0;entryDy=0;" parent="1" source="DxMj-Uew-eTLdMCIQgF5-13" target="DxMj-Uew-eTLdMCIQgF5-8" edge="1">
          <mxGeometry width="160" relative="1" as="geometry">
            <mxPoint x="560" y="330" as="sourcePoint" />
            <mxPoint x="490" y="330" as="targetPoint" />
            <Array as="points">
              <mxPoint x="530" y="245" />
              <mxPoint x="530" y="325" />
            </Array>
          </mxGeometry>
        </mxCell>
        <mxCell id="DxMj-Uew-eTLdMCIQgF5-16" value="" style="endArrow=open;endFill=1;endSize=12;html=1;rounded=0;fontSize=11;strokeColor=#000000;exitX=0.4;exitY=1.06;exitDx=0;exitDy=0;exitPerimeter=0;entryX=0;entryY=0.5;entryDx=0;entryDy=0;" parent="1" source="DxMj-Uew-eTLdMCIQgF5-8" target="DxMj-Uew-eTLdMCIQgF5-17" edge="1">
          <mxGeometry width="160" relative="1" as="geometry">
            <mxPoint x="410" y="410" as="sourcePoint" />
            <mxPoint x="570" y="420" as="targetPoint" />
            <Array as="points">
              <mxPoint x="414" y="410" />
              <mxPoint x="550" y="410" />
              <mxPoint x="550" y="325" />
            </Array>
          </mxGeometry>
        </mxCell>
        <mxCell id="DxMj-Uew-eTLdMCIQgF5-32" value="" style="endArrow=open;endFill=1;endSize=12;html=1;rounded=0;fontSize=12;strokeColor=#000000;exitX=1;exitY=0.5;exitDx=0;exitDy=0;entryX=0;entryY=0.5;entryDx=0;entryDy=0;" parent="1" source="DxMj-Uew-eTLdMCIQgF5-5" target="DxMj-Uew-eTLdMCIQgF5-9" edge="1">
          <mxGeometry width="160" relative="1" as="geometry">
            <mxPoint x="350" y="410" as="sourcePoint" />
            <mxPoint x="510" y="410" as="targetPoint" />
            <Array as="points">
              <mxPoint x="540" y="235" />
              <mxPoint x="540" y="165" />
            </Array>
          </mxGeometry>
        </mxCell>
      </root>
    </mxGraphModel>
  </diagram>
</mxfile>
